<?xml version="1.0" encoding="UTF-8"?>
<!DOCTYPE svg PUBLIC "-//W3C//DTD SVG 1.1//EN" "http://www.w3.org/Graphics/SVG/1.1/DTD/svg11.dtd">
<!-- Creator: CorelDRAW X7 -->
<svg xmlns="http://www.w3.org/2000/svg" xml:space="preserve" width="44.3652mm" height="13.3772mm" version="1.1" style="shape-rendering:geometricPrecision; text-rendering:geometricPrecision; image-rendering:optimizeQuality; fill-rule:evenodd; clip-rule:evenodd"
viewBox="0 0 4437 1338"
 xmlns:xlink="http://www.w3.org/1999/xlink">
 <defs>
  <style type="text/css">
   <![CDATA[
    .fil0 {fill:#FEFEFE;fill-rule:nonzero}
    .fil1 {fill:#F34545;fill-rule:nonzero}
   ]]>
  </style>
 </defs>
 <g id="Camada_x0020_1">
  <metadata id="CorelCorpID_0Corel-Layer"/>
  <path class="fil0" d="M191 1337l-193 0 0 -1258c0,-52 25,-78 76,-78l269 0c111,0 166,73 166,218l0 385c0,144 -55,216 -166,216l-152 0 0 517zm91 -693c29,0 43,-21 43,-62l0 -334c0,-42 -14,-63 -43,-63l-74 0c-11,0 -17,7 -17,19l0 440 91 0z"/>
  <path id="1" class="fil0" d="M760 1337l-185 0 0 -926c0,-49 25,-73 73,-73l256 0 0 174 -131 0c-9,0 -13,6 -13,17l0 808z"/>
  <path id="2" class="fil0" d="M1244 810c9,0 14,-6 14,-18l0 -231c0,-38 -13,-57 -39,-57l-51 0c-26,0 -39,19 -39,57l0 249 115 0zm169 527l-313 0c-104,0 -156,-68 -156,-203l0 -593c0,-135 52,-203 156,-203l185 0c104,0 156,68 156,203l0 339c0,47 -26,71 -77,71l-235 0 0 157c0,36 13,54 39,54l245 0 0 175z"/>
  <path id="3" class="fil0" d="M1942 1142c0,130 -52,195 -156,195l-290 0 0 -175 214 0c30,0 46,-17 46,-52l0 -71c0,-35 -11,-64 -33,-87l-177 -191c-16,-17 -28,-35 -36,-53 -8,-19 -12,-41 -12,-67l0 -108c0,-130 52,-195 156,-195l262 0 0 174 -189 0c-32,0 -48,18 -48,53l0 44c0,34 12,62 36,86l179 191c32,34 48,74 48,119l0 137z"/>
  <path id="4" class="fil0" d="M2314 810c9,0 14,-6 14,-18l0 -231c0,-38 -13,-57 -39,-57l-51 0c-26,0 -39,19 -39,57l0 249 115 0zm170 527l-314 0c-103,0 -155,-68 -155,-203l0 -593c0,-135 52,-203 155,-203l185 0c104,0 156,68 156,203l0 339c0,47 -26,71 -76,71l-236 0 0 157c0,36 13,54 39,54l246 0 0 175z"/>
  <path id="5" class="fil0" d="M3085 1337l-185 0 0 -771c0,-36 -13,-54 -40,-54l-77 0c-9,0 -13,6 -13,17l0 808 -185 0 0 -926c0,-49 25,-73 73,-73l271 0c104,0 156,68 156,203l0 796z"/>
  <path id="6" class="fil0" d="M3549 1337l-234 0c-104,0 -156,-68 -156,-203l0 -593c0,-135 52,-203 156,-203l234 0 0 174 -166 0c-26,0 -39,18 -39,54l0 542c0,36 13,54 39,54l166 0 0 175z"/>
  <path id="7" class="fil0" d="M3911 810c9,0 14,-6 14,-18l0 -231c0,-38 -13,-57 -39,-57l-51 0c-26,0 -39,19 -39,57l0 249 115 0zm169 527l-313 0c-104,0 -156,-68 -156,-203l0 -593c0,-135 52,-203 156,-203l185 0c104,0 156,68 156,203l0 339c0,47 -26,71 -77,71l-235 0 0 157c0,36 13,54 39,54l245 0 0 175z"/>
  <path class="fil1" d="M4439 1019l-185 0 0 -1018 185 0 0 1018zm0 318l-185 0 0 -239 185 0 0 239z"/>
 </g>
</svg>
